<svg id="Layer_1" data-name="Layer 1" xmlns="http://www.w3.org/2000/svg" viewBox="0 0 164.88 309.74"><defs><style>.cls-1{fill:#010101;}</style></defs><title>dood</title><g id="Layer_16" data-name="Layer 16"><g id="Kształt_14" data-name="Kształt 14"><path class="cls-1" d="M44.92,204.71c1.43-2.27,2.91-4.07,4.29-6,3.18-4.38,5.86-9.23,9.58-13.08,4.28-4.42,9.32-8.15,14.26-11.86s9.5-7.63,9.79-14.39c.07-1.65-.13-3.78-1.11-4.85-.66-.71-3.06-.26-4.47.25-5.9,2.13-11.85,2-18.07,2.17-11.26.32-20.8-4.32-30.34-8.41C12.34,141.5,1.58,129.33.09,110.29-.67,100.58,3.45,93,8.89,85.83c3.37-4.41,3-8.47.92-13-1.23-2.64-2.24-5.4-3.68-7.92-4.84-8.42-6.47-17.57-4-26.72a99.16,99.16,0,0,1,9.45-23.1C15.84,7.66,22.26,2.68,32,2.4c6.67-.2,13.17-1.24,19.36,1.94a22.4,22.4,0,0,1,5,3.35c8.27,7.76,11.12,7.84,19.9,1.07A39.53,39.53,0,0,1,98,.19a79.88,79.88,0,0,1,18.67.86C129,3.21,142.8,17.32,144.34,29.58A40.42,40.42,0,0,1,141.88,48c-1.34,3.77-1.32,7.24,2.35,9.65,6.05,4,8.87,10.3,12.62,16.1,4.09,6.33,7.87,13,8,20.27.24,14.29-.67,28.3-12,39.71-6.84,6.9-14.56,10-23.58,10.68-3.71.28-7.54-1-11.32-1.58-11.38-1.75-9.36-2.4-12.86,8.82S97.74,174,88.55,182.16c-6.06,5.41-12.33,10.63-18,16.41-10.45,10.6-16.84,23.58-20.37,37.94-.81,3.33-.65,6.9-.93,10.37s-.62,7.21-.85,10.82c-.51,7.94,3,15.08,4.56,22.59,1.28,6,3.12,12.06,2.91,18-.25,7.33-4.28,12.25-12,11.3-4.61-.57-9.44-5.61-10-11.39-1.24-12.12-4.64-24.07-3.46-36.39,1.32-13.67,1.88-27.53,6.91-40.54,2.15-5.54,5.09-10.79,7.67-16.6M82.32,31.87c-2.51,3.09-5.32,6-7.48,9.31-3.86,6-15,7.42-18.73,2.16-3-4.31-5.88-8.75-8.94-13.05s-11.79-7-16.69-4.94a13.29,13.29,0,0,0-5.56,3.89c-4.41,6-3.89,13.06-3.2,20,1.22,12.32,8.91,19.52,19.7,23.87,9.22,3.71,15.34,16.09,6.09,25.5-4.36,4.43-9.6,5.07-15.34,5.75a12.75,12.75,0,0,0-8.44,5.17c-1.35,2.22-1.1,6.74.33,9.11,6,9.89,15.43,15,26.57,17.29,2.5.52,5,1,7.5,1.62,7,1.81,18-2.68,22.56-8.41,3.28-4.16,3-8.93,3.69-13.52.76-5.36,2.8-10.13,7.05-13.1,7.23-5.06,12.09-.84,16.21,4.75,2.29,3.12,3.8,6.81,6.13,9.89,3.65,4.83,8.64,8.27,14.73,8.31,9.61.08,19.13-11.51,17.8-21.34a52.35,52.35,0,0,0-3.48-14A22.28,22.28,0,0,0,120,76.7c-2.8.32-5.39,2.14-8.16,3-9.73,3.12-16.24-1.44-15.25-10.83a15.84,15.84,0,0,1,6.62-11.38c5.91-4.26,11.85-8.15,16.42-14.25,2.44-3.27,3.17-6.21,2.56-9.35-1.63-8.35-10.48-13.64-19.07-11.43C95.89,24.35,88.3,25.67,82.32,31.87Z"/><path class="cls-1" d="M73.94,90.13c-4.74-.47-8.25-2.55-10.58-6.66-2.71-4.76-1.44-14.2,3.75-17.45,4.16-2.6,11.47-1.76,14.82,1.57,4.66,4.64,5.43,10.24,2.55,15.51C82.19,87.31,78.75,89.39,73.94,90.13Z"/></g></g></svg>