<svg id="Layer_1" data-name="Layer 1" xmlns="http://www.w3.org/2000/svg" viewBox="0 0 201.94 252.05"><defs><style>.cls-1{fill:#010101;}</style></defs><title>dood</title><g id="Layer_22" data-name="Layer 22"><g id="Kształt_17" data-name="Kształt 17"><path class="cls-1 painting" d="M197,125.58c-.27,1.76-1.07,3.28-.71,4.45,2,6.52-.16,12.56-1.63,18.74-.63,2.65-.55,5.47-.88,8.2-.35,2.91-.28,6-1.32,8.66-2.46,6.3-3.27,12.87-4.38,19.44-.76,4.48-3.35,8.72-3.74,13.19-.85,9.82-6.44,18-8.71,27.32-1.46,6-5.93,10.31-12.81,11.66-4.42.87-8.69,2.82-12.82,4.74-5.91,2.74-12,3.12-18.39,3.08a16.9,16.9,0,0,0-8,1.78c-5.72,3.18-10.91,2.48-16.69,0-2.75-1.17-6.61-1-9.57-.14-5,1.51-9.18-.23-13.32-2.29a6.87,6.87,0,0,0-7.72.53C71,248.51,65.38,251.65,58.88,252c-2.49.15-5.12-1-7.59-1.84-4-1.36-7.77-3.79-11.8-4.22-4.68-.5-7.76-3-10.89-5.72-3.44-2.93-7.43-5.84-9.47-9.68-3.57-6.7-8.78-11.85-13.23-17.7C2,207.71,1.55,200.25,4.47,193.47a15,15,0,0,0,1-5.57c.12-6.45.32-12.92-.06-19.35-.19-3.44-1.8-6.79-2.17-10.24-.2-1.85.63-3.95,1.42-5.75,1.66-3.75,1.57-7.32,1.12-11.43-.63-5.87.54-11.93.89-17.91.17-2.86.22-5.72.33-8.58.21-5.73,0-11.51.74-17.19.63-5,3-10,3.14-15,.11-4.18-2-8.43-3-12.64C6.23,63.55,6,57.74,11.3,52.65a8.43,8.43,0,0,0,1.93-6.89c-1.81-7.31.75-15.87,8.64-19.56a35.45,35.45,0,0,0,6.73-4c2.83-2.19,5.93-1.61,8.58-.55s4.3.43,6.12-1.45a9.49,9.49,0,0,1,9.61-2.62c4.18,1.24,7.53.34,11.3-1.34,3.37-1.5,7.19-2.06,10.87-2.71,1.23-.22,2.64.58,4,.92,1.81.46,3.61,1.27,5.43,1.34,10.61.38,21.24.46,31.84.9,6.6.28,13.2.84,19.76,1.61,6.81.8,13.56,2.14,20.36,3,4.65.57,9.37.49,14,1a109.16,109.16,0,0,1,12.3,2.17,8.5,8.5,0,0,1,5.75,11.46c-1.78,4.22-1.48,7.74,2.23,11,3.46,3,3.37,9.39-.11,13.23-2.69,3-3.09,5.31-.48,8.66a9.35,9.35,0,0,1,.82,11c-1.77,2.88-1.41,5.4.49,7.63a13.63,13.63,0,0,1,3.15,9.93c-.11,2.69.48,4.64,3.15,6.33,4.27,2.7,5.3,9.18,2.9,14.57-1,2.38-2.42,4.61-3.65,7.3M68.43,27.84c-3.33.21-5.16,2.44-6.82,5-2.4,3.67-8.42,5.58-11.44,2.91-3.33-2.94-4.61-.9-6.15,1.39-3,4.41-5.42,5-9.75,2.29a9.75,9.75,0,0,0-4.79-1.8,5.8,5.8,0,0,0-4,2.24c-.47.67.51,2.54,1.11,3.73.4.79,1.32,1.31,1.93,2,2.52,2.87,3.82,6.22,1.31,9.48-1.75,2.26-4.49,3.74-6.75,5.62-2.73,2.27-6.2,4.48-5.11,8.62a38.09,38.09,0,0,0,4.45,9.34C25,83,25.78,87.22,23,91.76c-4.29,6.92-6.52,13.74-1.57,21.68,2.75,4.42,2.31,9.42-2.64,13.08A9.74,9.74,0,0,0,16,130.93c-1.84,4.93.93,8.89,3.29,12.74,2.58,4.19,2.65,8.47-.54,11.51-4,3.78-3.69,8.39,1.4,11.86,4.58,3.12,5.29,8.75,1.42,12.56-2.51,2.48-3.13,5.05-1.48,8.24,2.5,4.84,1.84,9-1.9,12.81-3.43,3.51-3,5.87,1.4,8.31,1.42.78,2.75,1.73,4.16,2.53,4.86,2.75,5.38,8.12,7.33,12.52,2.62,5.92,3.54,6.61,9.47,5a12.42,12.42,0,0,1,5.07-.35c4.23.7,5.77,4.23,7.14,7.66a6.6,6.6,0,0,0,8,4.28,16.66,16.66,0,0,0,10.44-7.76c4.8-7.62,7.87-8.11,15.26-2.61,4.82,3.58,4.82,3.58,9.43-.74a7.45,7.45,0,0,1,11.2.58c1,1.13,1.47,2.78,2.6,3.67,1.68,1.32,3.62,2.73,5.65,3.12,4.43.87,7.36-1.51,9.75-5.22,3.62-5.64,6.21-6.08,11.4-3.2,3.82,2.13,6,1.53,8.46-1.5,2.68-3.3,5.82-4.39,10.23-2.91,4.91,1.65,8.58-1.49,7.21-6.05-1.61-5.38.6-8.37,4.8-11,2-1.27,3.18-2.83,1.14-5.57-4.91-6.59-3.39-11.11,4.33-14.23,3.17-1.28,3.55-2.61,1.12-5-5.2-5.09-5.38-12.78,3.53-14.25,4.61-.76,4.74-2.31,1.38-5.71-5-5-3.69-10.92.65-14.56,6-5,6.3-7.63,1.46-13.78-2.92-3.71-3-6.94-.27-10.65,1.23-1.65,2.59-3.21,4-4.77,2.15-2.45,1.85-3.92-1.36-4.6a36.69,36.69,0,0,0-6.31-.27c-5.26-.19-8.78-4-7.82-9.08.61-3.25,2.19-6,6-7,3.59-.91,3.7-1.74,1.1-4.42-.66-.66-1.28-1.37-2-2-4-3.38-4.93-8-2.57-12.11s.28-4.57-2.53-5.48c-4.57-1.48-5.49-3.08-4.87-8.52a7.62,7.62,0,0,1,7.09-6.74,39.69,39.69,0,0,0,6.64-1.35,8.28,8.28,0,0,0,2.3-1.66A10.45,10.45,0,0,0,178,52.65a9.23,9.23,0,0,0-3.27-.77c-3.77-.62-7.26-2.57-7.92-6.12-.46-2.52,1.6-5.54,2.67-8.29.23-.61,1-1,1.59-1.49-1.1-.58-2.36-1.83-3.26-1.61A70.1,70.1,0,0,0,158,37.65c-6.61,2.7-9.72,1.52-13.23-4.58a6.29,6.29,0,0,0-4.68-2.67c-3.86.13-7.63.92-10.81,3.77-4.6,4.14-9.94,2.2-11.65-3.79-.28-1-1.49-2.46-2.18-2.41-3.67.26-7.82,0-10.85,1.67-5.06,2.79-9.39,4.37-14.7.75-1.4-.95-4.4-.88-6,0C76.78,34.26,74.6,33.33,68.43,27.84Z"/><path class="cls-1" d="M1.33,2A3.49,3.49,0,0,1,0,.93L1.33,0A6.35,6.35,0,0,1,1.33,2Z"/><path class="cls-1" d="M39.19,112c.53-5.38,1.22-10.35,1.55-15.35.25-3.76.13-7.56,0-11.34-.22-8.74-.67-17.48-.73-26.22A9.72,9.72,0,0,1,46,49.72c6.71-2.6,13.46-5.67,21.15-3.53A130.08,130.08,0,0,0,83.4,49.38c2.08.3,4.31-.7,6.46-.66,5.41.12,10.81.5,16.22.74a24.28,24.28,0,0,0,4,0c3.52-.46,7-1.23,10.55-1.54,5.78-.51,11.54.25,17.41-1.41,5.44-1.54,9.08,2.6,10.92,8.32,2.13,6.6-.63,12.89-1.09,19.32-.23,3.3-1.13,6.56-1.27,9.85-.41,9.36-.73,18.72-.8,28.09,0,5.53.57,11.07.7,16.62,0,1.88-.75,3.78-.71,5.67.16,7.89.64,15.79.7,23.68,0,4.69-1.17,9.47-.59,14.06,1.06,8.48-1.26,16.57-1.83,24.84-.38,5.65-5.92,10.32-11.58,10.34-7.61,0-15.22.22-22.82,0-8.73-.3-17.71.13-26.08-1.86-9.09-2.15-17.6.77-26.37.39-1.36-.05-2.75,1-4.14,1.52-6.8,2.51-10.63-1.11-13.36-7.2-.46-1,.31-2.56.24-3.85-.17-3-.6-5.91-.75-8.87-.33-6.52-1-13.06-.71-19.55.3-7,1.8-14,2.16-21,.18-3.46-1.2-7-1.51-10.5-.28-3.11-.06-6.27,0-9.41,0-.66.08-1.31.09-2V112m10.42,14.83c.53,11.25,1.1,22.5,1.58,33.76.34,7.76.48,15.53.84,23.29.27,5.68,1.41,6.34,7,6.71,8.09.53,16.59.2,24.11,2.68,8.72,2.87,17.27,2.69,26,2.88,2,0,4,.71,6,.48,4-.48,7.93-1.56,11.93-2,2.5-.29,4.3-1.39,4.21-3.75-.38-9.8,1.58-19.37,2.3-29,1-13.36.76-26.82.94-40.23,0-2.29-.81-4.6-.71-6.87.4-9,1.06-17.89,1.51-26.84.07-1.46-.57-2.94-.61-4.42-.12-4.91.19-9.86-.34-14.71-.15-1.46-2.32-3.31-3.94-3.85-2.5-.83-5.34-.63-8-1-8.77-1-17.51-2.41-26.31-3.09-4.78-.36-9.67.86-14.46.57-5-.3-9.66-.14-14.36,1.91a14.31,14.31,0,0,1-7.51.61c-3.69-.55-6,.24-6.83,4.32a120,120,0,0,0-2.36,17c-.4,6.57,0,13.18-.18,19.77-.08,4-.57,8.05-.74,12.08C49.51,120,49.61,123,49.61,126.79Z"/></g></g></svg>