<svg id="Layer_1" data-name="Layer 1" xmlns="http://www.w3.org/2000/svg" viewBox="0 0 223.01 211.27"><defs><style>.cls-1{fill:#010101;}</style></defs><title>dood</title><g id="Layer_19" data-name="Layer 19"><g id="Kształt_15" data-name="Kształt 15"><path class="cls-1 polio" d="M44,194.08c-4.86-2.35-9.86-4-13.42-7.23-5.08-4.61-11.29-9.76-13-15.83-2.2-7.64-2-16.81,4.68-23.65,3.35-3.44,6.84-6.74,10.13-10.24.68-.73,1.32-2.33,1-3a4.07,4.07,0,0,0-3-1.94,29.69,29.69,0,0,0-7.07.93c-12.7,3.09-18.49-1.38-22-12.47-3-9.47-.88-19.58,7.3-25.26,5.17-3.58,12-4.77,17.86-7.39a22.57,22.57,0,0,0,6.82-4.9,4.86,4.86,0,0,0,.56-4.52,39,39,0,0,1-5.49-21.49c.21-6.44,3.85-10.28,8.06-13.75,9.41-7.78,19.8-14.14,31.73-17.17,14-3.58,26.23-11,38.9-17.53C117,3.51,127.38-.66,139,.09c23.3,1.49,33.35,9.07,43.14,29.55A10.5,10.5,0,0,0,186.63,34c5.78,2.9,12.27,4.65,17.52,8.26,8.78,6,13.22,14.56,12.58,25.83a39.09,39.09,0,0,1-6.24,19.16c-2.42,3.88-.35,7.74,2.55,10.15,10.4,8.7,10.92,19.9,9.23,32-1.23,8.85-6.18,15.31-12.24,21.4-1.95,2-3.74,5.14-3.8,7.79-.19,9.52-6.45,15.82-11.18,22.91-4.13,6.18-8.73,12-13,18.12-4.61,6.52-15.71,9.21-24.17,4.57-8.18-4.48-15-2.81-22.26,1.7-9.17,5.67-18.85,7.56-29.09,2.26-6.38-3.3-12.78-3.22-20-1.48-6.59,1.58-13.64,1.11-20.09-4.15-4.78-3.9-11.77-5.08-17.81-7.4a25.87,25.87,0,0,0-4.57-1m94-141.5c-7.81,4.87-15.3,10.46-25.48,8.72-.91-.16-3.46,2.83-3.32,4.16a63.67,63.67,0,0,0,2.9,14.22c2.42,7,4.23,14.39,9.84,19.89,3.46,3.39,6.94,3.43,11.07,1.14a23.44,23.44,0,0,1,7.9-2.53,42,42,0,0,1,9-.05,6,6,0,0,0,6.51-5.24,13.06,13.06,0,0,0-2.05-8.65c-1.72-2.52-5-2.58-8-1a52.86,52.86,0,0,1-7.53,3.49c-6.66,2.21-12.94-2.34-12.76-9.34.16-6.68,4.19-11,9.62-14.29a107.73,107.73,0,0,0,10.21-6.59c.84-.65.52-2.81.73-4.28a32.23,32.23,0,0,0-3.77-.43,14.92,14.92,0,0,0-4.84.81m39,44c-1.74-1.5-2.95-3.43-3.21,1.15-.24,4.22-2.24,8.32-3.42,12.49-.51,1.79-1.33,3.62-1.29,5.42.08,4.42.77,8.82.85,13.24.07,3.39,1.21,5.35,4.81,5.2,6.13-.26,12,.19,17.55,3.51,2.08,1.24,5.31,2.27,8.11-.32,5.42-5,7.8-20.06,3.21-25.78-1.77-2.21-5.2-3.33-8.09-4.28-2-.65-4.51.46-6.41-.25a45.33,45.33,0,0,1-9.7-5.2c-.8-.55-.36-2.84-.62-4.31,0-.19-.84-.25-1.79-.87m-13-31c-.08.59-.41,1.29-.2,1.75,2.69,6.06,5.48,12.06,8.18,18.11,1,2.29,1.77,4.73,2.92,7,.48.94.85,1.91,2.61.07,3.26-3.39,4.74-8.63,10.79-9.56,6.84-1.05,11.19-4.91,12.44-12.79,1.66-10.5-4.82-19.21-16.22-18.31-6.65.53-10.55,5.31-16.06,7.28-2.7,1-4.2,2.68-4.46,6.5m-10,65c-1.87-2.16-3.33-5.16-5.69-6.31-4.1-2-8.9-2.51-13.14-4.29-3.34-1.41-5.64-.68-8.13,1.48-1.26,1.1-2.94,1.7-4.36,2.64-5.26,3.48-4.75,10.83.74,14a32,32,0,0,0,18.27,4.07c5.84-.33,11.07-4.52,12.31-11.57m1.5-111.5c-3.72-1-7.6-1.75-11.12-3.25s-4.69,1.08-5.25,3c-1.32,4.6,1.86,10.48,6.65,12.37A38.67,38.67,0,0,0,156.62,34c4.93.41,6.74-2.81,4.35-7.44-1.29-2.49-3.27-4.63-5.43-7.44m-73,66a52.18,52.18,0,0,0,6.11,2c2.29.49,4.68.56,7,.82-.54-1.84-1-3.72-1.66-5.49A117.92,117.92,0,0,0,89,70.62c-2-3.89-6.62-3.73-8.92,0-2.59,4.2-1.84,9.46,2.5,14.44m-37,90c1.52.34,3.06,1,4.56.92a33.85,33.85,0,0,0,5.65-1.13c-.75-1.6-1.23-3.42-2.32-4.74-3-3.61-6.69-6.69-9.13-10.59-1.47-2.34-1.31-5.34-5.37-3.91-4.32,1.53-3.64,4.89-2.21,7.42,2.31,4.11,5.5,7.72,8.82,12m35.5-1.5a56.19,56.19,0,0,0,.1,8.11c.23,1.54,1.32,3.85,2.44,4.12s3.38-1,4.3-2.23A108,108,0,0,0,94.59,173,22.41,22.41,0,0,0,96,168.59c-1.62-.5-3.56-1.83-4.79-1.35A36.72,36.72,0,0,0,81,173.58m60-4c5.51-2.9,11-5.68,17.63-4.6.67.11,2.15-1.12,2.27-1.88a6,6,0,0,0-7.34-6.93A71.94,71.94,0,0,0,141.75,160c-4.79,2-5.09,5-.71,9.63m-96-111c.66,2.06,1,4.27,2.05,6.14,2.79,5.13,5.22,5.65,8.65,2.16,2.54-2.58,3.06-10.41,1.09-13.55C55,50.41,52.86,49,50,51.74A26.57,26.57,0,0,0,45,58.58m136.5,116.5c2.56-2.09,1.91-4.17-.85-4.69a90.49,90.49,0,0,0-14-1.16c-.53,0-1.7,2.05-1.57,3,.31,2.27,1.66,4.43,1.78,6.68.17,3.22,2.34,3.93,4.25,3,3.5-1.67,6.59-4.19,10.36-6.86M94,124.58c2.87-6.48-.72-11.55-3.79-16.66-.54-.9-2.35-2-3-1.68-1.29.57-3,2-3,3.15-.06,3.13-.15,6.74,1.29,9.31,1.61,2.89,3.08,7.21,8.55,5.88m-68-17c-1,2.27-4.75,5,.56,6.37,1.57.41,3.88-.4,5.24-1.44.87-.66,1.08-4,.79-4.07A15.86,15.86,0,0,0,26,107.58Z"/></g></g></svg>