<svg id="Layer_1" data-name="Layer 1" xmlns="http://www.w3.org/2000/svg" viewBox="0 0 288.19 267.77"><defs><style>.cls-1{fill:#010101;}</style></defs><title>dood</title><g id="Layer_28" data-name="Layer 28"><g id="Kształt_25" data-name="Kształt 25"><path class="cls-1 pen" d="M13.69,135.72c2.56-11.38,4.76-22.57,7.3-33.68,1.09-4.74,3.14-9.25,4.32-14,1.94-7.7,5.44-15.65,4.82-23.22-.93-11.38,3.51-20.84,6.5-31a33.17,33.17,0,0,0,.92-9.25c0-10.73,5.41-18.18,14-23.68A7.51,7.51,0,0,1,56,0C66.74,1,75.52,5.29,80.59,15.38a5.4,5.4,0,0,1,.8,3.13c-2.24,10.6-4.7,21.15-6.92,31.75-1,4.89-1.15,10-2.51,14.77-2.06,7.27-5.07,14.28-7.24,21.53C63.43,90.9,63,95.49,62.16,100,61,106.79,60,113.66,58.6,120.43c-2.46,11.66-5.33,23.23-7.82,34.89C47.73,169.57,45,183.89,42,198.15c-2.2,10.31-4.35,20.65-7.12,30.82-1.26,4.63-3.89,8.9-6,13.27-3.74,7.66-7.6,15.26-11.37,22.91-1.52,3.07-4.47,2.9-6.74,2.18A6.73,6.73,0,0,1,7,262.86c-1.47-7.94-2.72-15.93-3.57-24-.89-8.49-1.14-17.05-1.86-25.57C1.23,209.17,0,205.05,0,200.9c0-3.85.89-7.73,1.66-11.54q2.93-14.54,6.13-29c1.8-8.15,3.78-16.26,5.9-24.61M46.36,32.87c-1.17,6.53-2.51,13-3.43,19.6-.47,3.4.82,6.54,4.68,7a57.26,57.26,0,0,0,11.78,0c1-.09,2.27-1.95,2.68-3.23,1-3.24,1.49-6.68,2.49-9.94,3.36-11.06,3-12.26-7.82-15.09-3.12-.81-7.29-3.67-10.38,1.66M12.15,214.45a9.29,9.29,0,0,1,0,1.75c-.7,3.64,1.25,5.65,4.39,6.54,3.43,1,5.9-.75,6.93-3.9s1.33-6.7,2.24-10,1.32-7-2.12-8.08-7.37-.12-11,.31c-.54.06-1.21,2.13-1.18,3.26.08,3.08.51,6.15.8,10.1M35.4,144.72c5.3,0,6.88-1.23,7.43-5.72.15-1.15-.25-2.42.08-3.49,1.17-3.82-1-4.73-4-4.81a62.39,62.39,0,0,0-10.05.12c-1.56.21-3.88,1.66-4.18,3-.76,3.23-1.17,6.93,3.34,8.32a71,71,0,0,1,7.41,2.63m-3.51,32.45c-3.95.3-7.94.38-11.84,1-1.55.24-4.14,1.62-4.14,2.48,0,1.78,1,4.41,2.37,5.12a17.49,17.49,0,0,0,8.33,1.82c4.76-.17,8.46-6.85,5.28-10.4m-5.7-11.84c4.2-.52,8.46-1,11.06-5,.57-.87,1.34-2.23,1-2.9s-1.85-1.3-2.83-1.27c-4.12.13-8.25.94-12.33.69-4.26-.26-2.19,3.67-3.93,4.92,1.29,1,2.51,2.16,3.88,3a4.64,4.64,0,0,0,3.12.48m6.58-54c-3,2-3.08,3.61-.18,5.05a25.81,25.81,0,0,0,4.46,1.83c6.52,1.88,9.06.35,11.43-5.77,1-2.59.5-3.08-1.89-2.86-4.46.42-8.92.87-13.82,1.75M48.56,91.21c-4.33.82-8.68,1.56-13,2.55-.62.15-1.18,1.5-1.31,2.36,0,.3,1.26,1.09,2,1.18,3.37.4,6.75.74,10.14.87a21.87,21.87,0,0,0,4.34-.68,53.68,53.68,0,0,0-2.19-6.28m2.63-12.29c.1-.1.28-.19.29-.3.19-1.68.35-3.35.52-5-2.63-.25-5.33-.95-7.87-.58-1.43.21-2.71,2.09-3.83,3.42-.22.27.51,2,.9,2C44.22,78.77,47.27,78.81,51.19,78.92Z"/><path class="cls-1" d="M229.48,184.85c-.95,2.4-2.2,4.55-2.3,6.77-.24,4.91-3.34,7-7.29,8.33-13,4.37-26,8.24-40,7.21-2.28-.16-5.18,1.31-7,2.93-4.41,4-9.56,3.07-14.57,3-6.17-.09-12.34-.83-18.48-.63-1.66,0-3.93,2.18-4.73,3.91-3.53,7.64-10.29,11-17.64,12.27-4.71.82-10-.76-14.84-1.91-7.11-1.69-9.68-.07-9.73,7.13s-3,13.14-6.73,18.84c-6,9.16-11.79,11.21-22.89,7.44C57.54,258.2,53.09,258,49,263.26c-1.08,1.4-5.42,2.25-6.41,1.34a13.25,13.25,0,0,1-3.94-7.81c-.63-6.88,4.55-12.25,11.5-13.67a22.75,22.75,0,0,1,14.36,1.46c7.32,3.32,14-.52,14.86-7.88.49-4.11.27-8.38,1.34-12.33,1.74-6.43,11.78-14.24,20.16-12.14,3.21.8,6.54,1.15,9.79,1.8,7.17,1.43,12.13-2,16.26-7.31,2.15-2.75,4-5.78,6.53-8.13,2.86-2.67,6.55-2.49,10.31-1.73,6.11,1.23,12.26,2.35,18.45,3,3.75.41,6.77-1.22,8.92-4.79,2.87-4.77,6.35-5.3,12.08-4,9.23,2.13,18.32.64,27.07-2.61,4.72-1.76,5-6.74,6.16-10.66,2.15-7.51,4.34-9.79,11.64-9.41,6.93.36,13.85,1.72,20.75,1.5,4.94-.15,9.8-2.31,14.75-3.32a16.08,16.08,0,0,1,5.91,0c4.18.73,8.31,1.75,12.45,2.71,3.59.83,5.94,3.27,6.25,6.74.28,3.06-4.69,7.37-8,7.22-5.56-.25-11,.6-16.69-2-3.26-1.5-8.27,1-12.52,1.38s-8.87.82-13.18.24C234.61,182.43,232,182.31,229.48,184.85Z"/></g></g></svg>