<svg id="Layer_1" data-name="Layer 1" xmlns="http://www.w3.org/2000/svg" viewBox="0 0 257.11 178.17"><defs><style>.cls-1{fill:#010101;}</style></defs><title>dood</title><g id="Layer_32" data-name="Layer 32"><g id="Kształt_28" data-name="Kształt 28"><path class="cls-1" d="M255.43,126c2.89,12.51,2.71,24.15-5.87,33.8a23.23,23.23,0,0,1-11.83,7c-16.28,3.23-32.65,6.31-49.14,8-12.42,1.25-25.08-.19-37.6.38s-25.09,3.45-37.55,3c-16.94-.64-33.81-3.32-50.68-5.45-12.29-1.55-24.25-4.59-36.87-5.08C17.17,167.26,6,166.13,2,154.79a33.08,33.08,0,0,1-2-11.65c.36-9.77,1.42-19.52,2.13-29.28.15-2.08-.06-4.19,0-6.28C2.91,90.79,3.57,74,4.48,57.21,5,47.44,5.61,37.64,6.86,28a73.93,73.93,0,0,1,4.33-16.42c3.17-8.45,13.05-5.94,17-1.37,2.31,2.7,3.06,6.68,4.87,9.89,1.67,3,4.13,5.48,5.67,8.5,2.31,4.53,4,9.36,6.19,14,.49,1,1.86,1.64,2.83,2.44a10.68,10.68,0,0,0,1.18-3.09c.66-14,7.3-25.85,14-37.52C65.77-.59,73.52-1,76.38,3.59a266.18,266.18,0,0,1,16,28.71c2.06,4.45,1.43,10.14,2.23,15.24.22,1.43,1.16,2.76,1.77,4.14A16.23,16.23,0,0,0,98,48.34c2-9.08,4.22-18.13,5.64-27.3,1.54-9.86,6.69-15.85,17.68-12.9,8.32,2.23,13.84,5,15.71,14.21,1.75,8.58,5,16.87,7.86,25.21.54,1.58,2,2.84,3.09,4.24a19.7,19.7,0,0,0,1.41-4c.84-7.67,1.64-15.34,2.24-23,.54-6.94,2.16-13.3,6.58-19a8,8,0,0,1,12.5-.36C176.41,12.6,182,20,187.19,27.61c3.71,5.39,6.7,11.28,10.1,16.89.43.7,1.41,1.07,2.14,1.6.41-.65,1.14-1.28,1.19-2,1.11-13.4,8.39-24.68,12.64-37,3.2-9.29,15.84-9.28,20.11-1.48a110.26,110.26,0,0,1,10.41,28.11c2.9,12.67,4.27,25.71,5.88,38.65,1.45,11.65,2.29,23.38,3.51,35.06.63,6,1.5,11.92,2.26,18.46m-170-56.48c-.76-6.91-1.2-13.87-2.39-20.7a68.55,68.55,0,0,0-4.12-13.09,56.81,56.81,0,0,0-5-9.33,6.34,6.34,0,0,0-3.72-2.87c-.93-.12-2.57,1.59-3.11,2.82a84.45,84.45,0,0,0-4.44,11.84c-2.36,8.74-4.21,17.63-6.58,26.37-1.42,5.19-4.8,8.79-10.61,8.28-5.65-.5-9-4.34-10.25-10.78-1.17-6-1.76-12.15-3.64-17.89-1-3-4.2-5.33-6.4-8-1.22,3.48-3.28,6.92-3.5,10.46-.65,10.85-.53,21.75-.81,32.62-.5,19.35-1.14,38.7-1.48,58.05,0,1.14,1.78,2.9,3.1,3.39,6.77,2.49,13.59,4.91,20.53,6.88,10,2.86,20.34,4.45,30.58,6.33,16.91,3.11,33.83,2.86,50.69,3.64,13.51.63,27.18-3,40.75-2.82,20.18.21,39.94-1.5,59.3-7.14,5.9-1.71,11.79-3.88,14.41-10.23.55-1.31.67-3.57-.1-4.45s-2.91-1-4.47-1.08c-1.28-.1-2.71.66-3.87.33-6.45-1.81-9.84-6.12-9.14-11.26.77-5.63,5.79-9.54,12.15-9.84,1.68-.08,4.53-.79,4.75-1.72.9-3.71,1.88-7.79,1.2-11.42-2.58-13.66-6-27.17-8.71-40.81-1.62-8.16-2.4-16.49-3.73-24.71a49.84,49.84,0,0,0-2.12-6.83c-1.92,1.7-4.09,3.2-5.68,5.17-.91,1.13-.83,3-1.29,4.56-3.08,10.31-5.83,20.75-9.52,30.85-.95,2.61-4.71,5.49-7.44,5.78-2.23.23-5.13-2.94-7.2-5.11-1.51-1.59-2.09-4-3.22-6C184.2,49.85,178,38.9,171.66,28.07a5.42,5.42,0,0,0-4-2.28c-.78,0-2.07,2.23-2.26,3.58-1.29,9.2-2.36,18.43-3.5,27.65-.4,3.26.11,7-1.34,9.68-2.38,4.4-5.31,9.18-9.31,11.84-4.94,3.28-11.38-2.52-13.36-10.48-3.13-12.48-5.3-25.3-12.41-36.49-1.56-2.45-2.21-6.26-5.86-4.66-2.35,1-5,3.91-5.41,6.32-1.37,7.56-1.37,15.36-2.63,23-1,5.72-2.19,11.7-4.85,16.74-2.2,4.15-5.93,9.9-11.88,7.09C91.14,78.27,88.9,73.48,85.44,69.48Z"/><path class="cls-1" d="M188.12,130.52c-3.43-6.24.54-9.67,4.2-12.58,4-3.16,8.64-3.26,12.82.06,3.53,2.81,2.58,6.56,1.79,10.29-1.06,5-3.56,8.6-9,9C193.2,137.69,189.91,135.47,188.12,130.52Z"/><path class="cls-1" d="M145.62,134.23c-2.29-4.93-2-9.1,1.91-12.78,4.5-4.27,8.09-4.61,12.89-1,2.92,2.23,3.83,8.26,1.1,11.95C157.63,137.72,151.37,141.56,145.62,134.23Z"/><path class="cls-1" d="M103.7,136.22c0-7,5.66-14.27,10.52-13.57,3.93.56,5.83,3.21,7.06,7.42,1.33,4.56-1.16,7.23-3.35,9.29C112.83,144.15,107.46,142.85,103.7,136.22Z"/><path class="cls-1" d="M37.53,131.66c-6.14-.37-9-4.1-9.2-10.41-.18-5.19,3.42-6.84,7.14-7.71,4.16-1,10.56,3.88,11.18,7.71C47.34,125.45,43.07,130.64,37.53,131.66Z"/><path class="cls-1" d="M66.05,136.22c-4-4.17-2-8.25.46-10.89,2.08-2.2,6.28-4.11,9-3.53s5.92,4.41,6.09,7c.21,3-2,7-4.49,9-1.81,1.43-5.72.31-8.68.14C67.6,137.9,66.83,137.19,66.05,136.22Z"/></g></g></svg>