<svg id="Layer_1" data-name="Layer 1" xmlns="http://www.w3.org/2000/svg" viewBox="0 0 237.92 246.53"><defs><style>.cls-1{fill:#010101;}</style></defs><title>dood</title><g id="Layer_24" data-name="Layer 24"><g id="Kształt_20" data-name="Kształt 20"><path class="cls-1" d="M25.23,84.57C32.86,89.26,40.76,93,49.13,93c12.79,0,25.61-1.42,38.35-2.79C91.34,89.8,94,87.46,95,82.55c1.47-7,5.1-13.61,7.38-20.52,3.42-10.34,4.39-21,5.16-31.9.59-8.38-.82-17.52,4.56-25,1.62-2.27,4.58-5.27,6.72-5.11,3.58.26,8,1.56,8.71,6.6.33,2.34,1,4.7.92,7-.56,11.66-1.23,23.31,2,34.75,1.66,5.9,3.55,11.74,5,17.69a37.27,37.27,0,0,1,.73,8.06c.15,6.45,5.25,11,11.48,9.41,9-2.27,18.26-4.15,26.58-8a64.63,64.63,0,0,1,20.93-5.28c8.3-.85,14.87-4.83,21.19-9.49,4.94-3.65,11.87-4.22,16.46-.7s6.56,10.7,3.88,16A23.74,23.74,0,0,1,231,83.73c-7.93,6.57-14.48,15-24.48,18.85-11.27,4.34-18.9,13.87-28.81,20.13q-4,2.55-8,5.12c-8.23,5.35-7.29,6.8-4.57,16.25,3.77,13.15,11.77,24.45,16.25,37.17s7.25,26.27,10.85,39.42c1,3.59,2.33,7.08,3.4,10.65,2,6.62-3.55,15.65-9.94,15.2-5.14-.37-9.2-3.87-12.62-7.83-4.81-5.56-9.75-11-14.59-16.56a14.11,14.11,0,0,1-2.69-3.71c-3-7.45-9.32-11.79-14.91-17-4.56-4.23-8.17-9.48-12.41-14.08-3.48-3.78-5.47-3.55-8.25.56a209.22,209.22,0,0,0-18,33.55c-3.62,8.25-7.84,16.7-16.64,21.48-6.64,3.6-14.91,1.26-15.88-7.8-1.16-10.73,1.41-21.15,3-31.68,1-6.61.61-13.41.86-20.12.11-3,.17-6,.45-9,.4-4.46,1.81-9,1.21-13.33-.48-3.46-2.73-7.12-5.18-9.78A164,164,0,0,0,53.76,136a54.85,54.85,0,0,0-13-8.17C29.55,123,21.09,114.44,11.67,107.2c-1.46-1.12-2.8-2.55-4.44-3.27-8-3.49-10.34-17.19-2-21.73,3-1.65,7.51-1.28,11.22-.88,2.84.31,5.51,2.12,8.74,3.25m140.42,110c-.46-1.1-.85-2.23-1.38-3.29-3.54-7.05-6.8-14.28-10.76-21.09-5.8-10-8.15-21.67-17-30.24-5.2-5.06-2.38-15,4.2-18.8,6.07-3.48,12.53-6.25,18.67-9.61q15-8.18,29.7-16.78c1.33-.78,2.07-2.57,3.08-3.89-1.83-.12-3.81-.75-5.45-.26-4.11,1.25-8.05,3.06-12.09,4.55-10.59,3.89-20.75,8-28.91,16.64-7.17,7.61-18.6,3.48-20.78-5.47-2-8.08-2.47-16.57-3.14-24.91-.46-5.86,0-11.78-.24-17.66,0-1.13-1.48-2.21-2.28-3.31-.8,1-2.12,1.82-2.3,2.89-1.44,8.12-2.53,16.3-4,24.42s-2.76,16.15-4.94,24c-1.49,5.38-9.5,9-14.83,7.46-9.8-2.93-19.76-2.61-29.77-1.82a3.12,3.12,0,0,0-2.25,1.29c-.25.48.34,1.78.93,2.22,3.16,2.37,6.23,5,9.74,6.75,3.85,1.87,8.08,3.67,12.26,4,8.4.64,16.26,9.52,14.36,17.63-1.3,5.52-3.54,10.83-4.66,16.37s-1.45,11.34-2,17c-.41,4-.69,8.09-1,12.14a5.22,5.22,0,0,0,.51,1.68,15.47,15.47,0,0,0,1.38-1.3,12.1,12.1,0,0,0,1.92-2.58c3.23-7.18,6.64-14.29,9.51-21.62A230.28,230.28,0,0,0,112,148.21c1.73-6.31,8.76-10.87,15.4-8.26,7.71,3,10.35,9.76,11.7,17.14s2.59,14.53,7,20.76a116,116,0,0,0,7.22,10c3.26,3.75,6.93,7.16,10.55,10.58.66.63,1.92.62,2.91.9a23.19,23.19,0,0,1-.55-2.33A7,7,0,0,0,165.65,194.59Z"/></g></g></svg>