<svg id="Layer_1" data-name="Layer 1" xmlns="http://www.w3.org/2000/svg" viewBox="0 0 292.17 282.18"><defs><style>.cls-1{fill:#010101;}</style></defs><title>dood</title><g id="Layer_30" data-name="Layer 30"><g id="Kształt_27" data-name="Kształt 27"><path class="cls-1" d="M285.89,163c2.24,14.76,6.22,28.78,6.14,43.57,0,6.57,1.15,13-2.84,18.72a74,74,0,0,1-5.83,6.72c-5,5.59-10.34,10.94-15,16.84-2.58,3.29-3.82,7.6-6,11.26-1.37,2.28-3,4.92-5.13,6.14-7,3.91-14,8.29-21.53,10.45-6.37,1.82-13.55.8-20.38,1a10.82,10.82,0,0,1-1.6-.15c-6.9-.83-13.8-2.34-20.7-2.34-9.08,0-18.18.52-27.09,3a47.28,47.28,0,0,1-13.69,1.48c-6.16-.12-12-.47-18.22,1.55-5.36,1.74-11.73.33-17.65.33q-9.11,0-18.2,0c-5,0-10,.06-15,.07-4.23,0-8.46.12-12.68,0a82.9,82.9,0,0,1-10.91-.92c-8.81-1.5-17.55-3.57-26.4-4.74-3.4-.44-7,1.36-10.58,1.37-2.33,0-4.81-1.08-7-2.16-3-1.53-5.38-3.71-9.39-3.88-3.56-.15-4.29-4.76-4.64-8.06C.85,256.15,0,248.93,0,241.73c.06-9.25,1-18.49,1.56-27.73.26-4.21.31-8.44.88-12.61C4,190.08,5.3,178.72,7.51,167.53Q12.34,143.11,18.38,119c3.15-12.59,8.74-24.25,15.36-35.44,4.49-7.58,8.69-15.33,13-23.05,4.41-8,9.51-15.29,16.82-21,5.34-4.18,10-9.27,15.33-13.41,8.46-6.55,17.9-11.37,27.79-15.61A146.61,146.61,0,0,1,143.29.17c5.23-.76,10.82,1.24,16.27,1.77C171,3.06,180.2,10,190.58,13.88c11.2,4.19,22.29,8.79,33.16,13.78,4.59,2.11,8.52,5.69,12.75,8.59,2.6,1.78,5.16,3.64,7.84,5.31,6.74,4.18,10.48,10.4,14.47,17.22,4.93,8.44,7.31,17.66,11.28,26.33,1.16,2.54.7,5.9.72,8.88a28.18,28.18,0,0,0,4.62,15.68c1.63,2.51,2.31,5.78,2.88,8.81,1.31,7,2.22,14.12,3.42,21.17,1.31,7.66,2.77,15.29,4.17,23.35m-88.23,98.68c5.85-.51,11.36,1.74,17,2.2,6.23.52,12.67-1.32,19-2.21,4.42-.62,6-3.76,7.18-7.67,2.16-7.09-.14-13.79-1.22-20.6-.85-5.32-2.23-10.55-3-15.88-.81-5.86-.74-11.87-1.82-17.67-2.2-11.84-4.37-23.73-7.57-35.32A303.59,303.59,0,0,0,211,121.11c-3.33-7.39-6.36-14.92-9.59-22.36s-5.7-15-9.79-21.83C181.73,60.5,168.3,47.26,152.37,36.6c-9.62-6.44-20.48-9-31.77-8.92a49.82,49.82,0,0,0-25.25,6.85c-2.47,1.47-4.66,3.55-7.28,4.63A53.6,53.6,0,0,0,66.61,54.83c-12.38,15-20.21,32.8-29.36,49.73-5,9.31-8,19.55-10,30.16C25,146.81,21,158.55,18,170.51A135,135,0,0,0,15,186.84c-.83,6.7-1.26,13.45-1.72,20.2-.63,9.23-1.38,18.47-1.61,27.73-.16,6.33.44,12.68.79,19a15.34,15.34,0,0,0,.82,3.82c.76,2.31,1.57,4.43,4.51,1.77a5.46,5.46,0,0,1,3.71-1c4.59.34,9.16.92,13.74,1.43,7.85.89,15.7,1.81,23.55,2.67,1.24.14,2.51-.08,3.76,0,11.52,1.08,23,2.43,34.57,3.22,4.85.34,9.79-.59,14.69-.7,6.13-.14,12.27,0,18.4,0,8.27,0,16.55.27,24.8-.11,4.71-.21,9.37-1.53,14.07-2.24A125.91,125.91,0,0,1,183,260.94c4.61-.16,9.24.47,14.7.74m2.93-225.37c-6.19-2.56-12.29-5.38-18.59-7.6a125,125,0,0,0-14.38-3.63c-.91-.21-2,.33-3,.52.63,1.13,1,2.58,1.93,3.35,5.36,4.44,11.34,8.24,16.18,13.17A183.71,183.71,0,0,1,199.6,62.28c3.66,5,7.37,10.41,9.12,16.22a317.34,317.34,0,0,0,12.75,34.88c4.3,9.92,8.63,19.84,12.48,29.94a141.75,141.75,0,0,1,5.58,19c2.32,10.23,4.29,20.56,6.17,30.89,1.15,6.27,1.84,12.62,2.77,18.93,1,7,2.08,13.9,3.13,20.86a38.13,38.13,0,0,0,.88,4.65,10.08,10.08,0,0,0,1.34,2.29,9.75,9.75,0,0,0,2.24-1.6c1.57-2,2.56-5,4.55-5.9,6.09-2.77,8.69-8.29,12.24-13.23,5.59-7.77,7.86-16,5.55-25.48-1.09-4.47-1.75-9-2.54-13.58-1.6-9.1-3.05-18.23-4.77-27.3-1.32-6.94-3.38-13.76-4.31-20.75-.86-6.44-2.11-12.56-5-18.43-1.65-3.31-2.4-7.09-3.42-10.7s-1.49-7.46-2.93-10.91c-2.54-6-5.55-11.92-8.53-17.78a23.33,23.33,0,0,0-3.84-5.5c-3.88-4.12-8-8.05-12-12.06-3.71-3.71-7.12-7.81-11.21-11C214.31,41.34,208.32,37.52,200.59,36.31Z"/><path class="cls-1" d="M154.59,131.23a118.83,118.83,0,0,1,31.3,4.16c5,1.32,7.57,5.21,8.66,9.52s-.12,9.12-4.2,11.87a15.65,15.65,0,0,1-13.83,1.88c-7.89-2.4-16-5.14-24.23-3.84-10,1.56-20,3.17-28.49,9.92-6.59,5.26-13.13,4.76-18.63-1.65-6.71-7.82-15.54-10-24.82-10.72-4-.31-8.25,2-12.4,3.09a32.14,32.14,0,0,1-4.85.92c-5.28.52-9.28-1.17-10.51-6.82-1-4.63,2.45-10.08,7.43-13.37,8.65-5.7,18.14-7.55,28.19-6.57a60.41,60.41,0,0,1,24.43,7.56c5,2.89,9.5,1.58,14.28-.08C135.76,134,144.7,131.39,154.59,131.23Z"/></g></g></svg>