<svg id="Layer_1" data-name="Layer 1" xmlns="http://www.w3.org/2000/svg" viewBox="0 0 89.71 314.02"><defs><style>.cls-1{fill:#010101;}</style></defs><title>dood</title><g id="Layer_20" data-name="Layer 20"><g id="Kształt_16" data-name="Kształt 16"><path class="cls-1" d="M13.39,55.62c-.71-6.35-2.23-12.39-2-18.35C11.85,29,12.87,20.56,17.09,13,19,9.57,20.35,6,23.64,3.59c6.63-4.92,16.11-5.28,22.1,2.06,3.35,4.09,6,4.38,11.57.7,6-4,12.55-4.32,19.26-2.71a9.24,9.24,0,0,1,5.05,3.07A61,61,0,0,1,88.2,17.85c3.37,7.7.53,15.07-3,21.72-4.72,8.92-10.95,17-15.56,26-3.46,6.75-6.32,13.91-6.5,21.94-.11,4.82-2,9.57-2.92,14.39a43.82,43.82,0,0,0-.46,7.07c-.07,3.2-.1,6.42,0,9.62.17,5.49.63,11,.65,16.45,0,5.81-.74,11.29-6.59,14.73-2.17,1.29-3.31,4.41-5.51,5.54a9.06,9.06,0,0,1-10.45-1.41c-3.1-2.64-6.12-3-9.8-.66-5.08,3.22-11.27-.21-11-6.2.33-7.91,1.13-15.83,2.11-23.7.9-7.26,2.88-14.44,3.27-21.71.29-5.22-1-10.59-2.05-15.79-1.91-9.38-4.16-18.7-6.29-28-.14-.64-.46-1.24-.7-2.21m37.8,31.74a44.88,44.88,0,0,1,1.31-6.24c2.32-6.51,4.71-13,7.3-19.43a60.08,60.08,0,0,1,5.34-11c4.22-6.29,8.65-12.41,11.49-19.5a20.83,20.83,0,0,0,1.61-5c.46-3.67-2.34-8.09-6.1-9.79-3-1.36-8.75-1.67-11.45,1.7a133.27,133.27,0,0,0-8.75,13.1c-1.35,2.17-2.77,4.71-5.54,3.56-2-.86-4.36-2.9-5-4.92-1.16-3.62-.79-7.71-1.75-11.43-.58-2.26-2-5.19-3.87-6s-5.51-.14-6.92,1.31C26,16.64,23.16,20.25,22.19,24a63.77,63.77,0,0,0-1.51,17.41c.13,4.27,1.76,8.48,2.69,12.73,1,4.69,1.4,9.63,3.15,14a70.27,70.27,0,0,1,5.43,27c0,.8.21,1.6.22,2.4,0,3.9.24,7.83-.12,11.7-.52,5.64-1.47,11.25-2.26,16.87-.53,3.76.87,6.14,4.63,7.29a14.12,14.12,0,0,1,4,2.46c3.49,2.59,3.91,2.17,6.52-1.45,4.09-5.7,4.79-12.08,4.83-18.69,0-1.9-.64-3.83-.5-5.71C49.78,102.73,50.52,95.4,51.19,87.36Z"/><path class="cls-1" d="M14.1,241.07a26,26,0,0,0,.69-2.91c.29-6,.58-11.93.72-17.9.11-4.95.16-9.91,0-14.86-.1-2.69-1-5.35-1.14-8a26.49,26.49,0,0,1,.57-7.81c1.12-4.25,2.94-8.3,4.15-12.53,1.55-5.41,8.71-7.07,12-2.87a8.76,8.76,0,0,0,1,1c3.79,3.46,5.2,3.26,9.23.08,1.53-1.21,4.41-2.33,5.82-1.67,1.63.78,2.85,3.43,3.3,5.48.7,3.17.6,6.51.83,9.79,0,.71.27,1.57,0,2.11-3.65,6.56-1.42,13.69-2.13,20.53-.73,7.17,1.17,13.88,2.8,20.72,1.38,5.8,1.27,12,3.11,17.64a185.78,185.78,0,0,0,9.67,22.72c3.62,7.47,3.25,21-2.09,26.8-4.62,5-10,9.71-17.49,9.3-3.13-.17-6.26-2-9.2-3.46-2.7-1.33-4.46-.15-5.85,1.74-5.67,7.65-14.12,9.47-21.32,3.64-2.88-2.33-5-6.19-6.27-9.77C.87,296.64-.3,291.93.07,287.61c.48-5.68,2.36-11.29,4.1-16.78,3.13-9.86,6.6-19.61,9.93-29.76m7.14,11.06c-2.62,7-5,14.08-7.91,21-3,7.1-4.38,14.12-1.39,21.56,1.33,3.32,3.74,5.13,7.4,4.88,3.24-.22,3.84-2.71,4.86-5.27A51.42,51.42,0,0,1,30,283.5c2.17-3.05,6.46-2.52,8.38.8,1.42,2.45,2.27,5.24,3.6,7.77,3,5.64,8,5.76,12.17.87,3.17-3.72,2.22-7.44,1-11.2-3.23-9.59-7.26-18.95-9.87-28.69-2.33-8.7-3.23-17.79-4.69-26.73-.58-3.58-1.1-7.19-1.4-10.82a64.05,64.05,0,0,1,0-8c.16-3.94.56-7.88.6-11.83a4.39,4.39,0,0,0-1.61-2.32c-2.92,1.52-5.46.28-8.12-.74-.56-.21-2.16.57-2.21,1-.84,7.93-1.63,15.88-2.2,23.83-.42,5.88-.18,11.81-.84,17.65A140.86,140.86,0,0,1,21.24,252.13Z"/></g></g></svg>