<svg id="Layer_1" data-name="Layer 1" xmlns="http://www.w3.org/2000/svg" viewBox="0 0 251.57 265.45"><defs><style>.cls-1{fill:#010101;}</style></defs><title>dood</title><g id="Layer_33" data-name="Layer 33"><g id="Kształt_29" data-name="Kształt 29"><path class="cls-1" d="M151.3,169.69c-5.87,4.18-11.49,8.13-17.12,12.08-5.43,3.81-11.58,6.91-16.12,11.58a169.26,169.26,0,0,0-17.12,21.57c-4.61,6.64-9.08,13.58-12.21,21-3,7.11-4.13,15-6.28,22.51-1.7,5.91-10.43,9.18-15.39,5.5-2.75-2-5.55-4.83-6.82-7.91-5.07-12.26-14.54-20.86-23.61-29.82a55.71,55.71,0,0,0-10-8c-5.24-3.21-6.82-8.46-8.2-13.63-3.75-14-6.61-28.17-10.7-42A92.56,92.56,0,0,1,4,141.31c-.34-6.08-2.12-12.06-2.94-18.13-.54-4-.32-8.15-.73-12.2C-.9,98.69,1.43,86.87,4,74.94a110.82,110.82,0,0,1,22.1-46.87C34.85,17.19,46,10.91,58,5.44,63.94,2.72,70.57.37,77,.07a59.78,59.78,0,0,1,40.12,12.66c5.59,4.29,11.5,8.16,17.06,12.49,1.85,1.45,2.8,4.08,4.66,5.52,1.44,1.13,4.24,2.31,5.45,1.65C152.69,27.8,161,23,169,17.76s16.62-6.4,25.88-5.7a133.43,133.43,0,0,0,15.62,0c6.32-.26,11.88.95,16.73,5.5S239,25.52,242.64,31c4.05,6.16,6.32,13.92,7.74,21.3,3.15,16.32-.11,31.84-8.13,46.42-2.53,4.6-3.77,10.07-6.92,14.12-4.39,5.64-9.91,10.44-15.14,15.4-10.05,9.55-21.94,16.38-34.1,22.84-6.75,3.58-13.23,7.67-20,11.3-4.76,2.57-9.72,4.74-14.83,7.32M117.89,43.88c-4.36-4.58-8.18-9.9-13.2-13.6C88.18,18.08,70.34,21.45,54,29.63c-14,7-22.7,20.19-28.82,34.81a114.86,114.86,0,0,0-8.61,49c.19,5.63,1.81,11.21,2.71,16.83,1.18,7.42,2.08,14.88,3.5,22.25s3.08,14.79,5.13,22c1.39,4.89,2.75,10.21,5.71,14.14C39.86,196.89,47.08,204.34,54,212c.28.31,2.11-.09,2.18-.39a7.07,7.07,0,0,0,.08-3.73c-2.09-5.76-4.13-11.56-6.66-17.13-3.46-7.62-2.67-14,5.73-16.52,4.39-1.33,9-2,13.49-2.91,5.11-1.07,7.7-4.53,6.36-9.44-1-3.63-3.11-6.95-4.17-10.57-1.27-4.29-3.51-9.14-2.54-13.06,2-8.2,9.55-10.92,17.15-12.37,5.11-1,5.71-2.34,3.29-6.88-5-9.38-5.33-17.18,7.47-21.38a14.13,14.13,0,0,1,3.79-1.12c11.07-.36,11.47-4.19,12.83-12.46a159.44,159.44,0,0,1,4.59-18.64c1.88-6.47,4.39-13.7.33-21.55M104.15,178c2.88-2.57,5.71-5.21,8.66-7.68,4.55-3.82,8.86-8.06,13.87-11.15,8.85-5.48,18.16-10.21,27.26-15.29,10.12-5.66,20.47-11,30.27-17.16,10.82-6.81,23.37-11.09,30.71-23.1,4.4-7.2,9.65-13.79,12-22.08,2-7.37,1.5-14.52.33-22.16-1.83-11.89-7.28-16.13-16.92-20.64-6.58-3.09-13.5-2.48-20.68-2.23C176.56,37,167,44,158,51.58c-6.15,5.11-10.55,12.28-15.94,18.34-7.18,8.08-11.81,17-10.85,28.19.7,8.17-2.58,13.91-10.11,17.38-3,1.36-4.44,3.12-2.46,7.06,3.07,6.08.57,14-4.45,16-3.82,1.48-7.89,2.28-11.83,3.47-11.78,3.54-14.15,4.75-10.11,15.56,5.37,14.37.45,28-16.43,31.81-1.44.33-3,.35-4.31,1-2.9,1.5-4.23,3.76-2.9,7.2,1.22,3.13,2.05,6.4,3.16,9.58.71,2,1.61,3.94,2.42,5.91,1.18-1.92,2.26-3.91,3.54-5.74C85.18,196.63,93.34,186.57,104.15,178Z"/></g></g></svg>