<svg id="Layer_1" data-name="Layer 1" xmlns="http://www.w3.org/2000/svg" viewBox="0 0 192.3 265.47"><defs><style>.cls-1{fill:#010101;}</style></defs><title>dood</title><g id="Layer_26" data-name="Layer 26"><g id="Kształt_22" data-name="Kształt 22"><path class="cls-1" d="M192,166.52c.92,9.16-2.19,17.14-4.56,25.38-3.34,11.56-11.16,20-18.24,29.07-8.07,10.37-18.42,18.12-28.92,25.49-5.31,3.73-12.33,5-18.6,7.39-5.32,2-10.64,4.07-16,5.87-11.07,3.7-22.49,6.23-34.12,5.67-5.73-.27-11.61-2.57-16.92-5a181.8,181.8,0,0,1-21.47-12c-10.5-6.75-20-14.73-25.56-26.29A75.87,75.87,0,0,1,3,208.44C.81,200.24-1,192.06.59,183.36c1.13-6.31,1.74-12.7,4.51-18.57,5-10.71,8.4-22.25,15.23-32.07a54.15,54.15,0,0,1,16.94-16.29c6.68-3.92,12.81-8.78,19.17-13.23,2.63-1.83,5.35-3.53,7.83-5.54a29.23,29.23,0,0,0,4.72-5c.4-.52.08-1.86-.29-2.66-2.58-5.57-5.49-11-7.83-16.67a37.13,37.13,0,0,1-3-16.19c.29-5.82,0-11.67.08-17.5a39.84,39.84,0,0,1,9.9-25.91c2.36-2.78,6.62-3.94,9-6.72,3-3.54,6.91-4.69,10.87-5.22,4.92-.65,10-.38,15-.21,6.34.23,10.49,4.33,14.53,8.64,3.36,3.6,3.87,3.33,7.77.56C131.43,6.25,138,1.28,145.9.25c5.51-.71,11.47.19,16.93,1.54,5.8,1.44,11.23,4.31,16.85,6.47,6.2,2.38,7.77,8.25,10.06,13.47a32.84,32.84,0,0,1,2,18.73,39.09,39.09,0,0,1-5.05,12.69c-3.7,6.38-7.94,12.47-12.21,18.49a59.94,59.94,0,0,1-7.36,8.4c-3.2,3.1-6.79,5.78-10.08,8.79a19.12,19.12,0,0,0-3.81,4.57c-1.54,2.69.16,4.66,2.39,5.7,10.06,4.69,17.25,12.7,24.06,21,2.47,3,3.68,7.12,5.2,10.83s3.29,7.69,4,11.71c1.45,7.76,3.71,15.47,3,23.89M145.6,74.16q5.47-4.72,10.93-9.47c1.86-1.62,4.07-3,5.52-4.92,3.13-4.18,6-8.58,8.75-13,3.67-5.86,5.35-12.19.75-18.13a23.45,23.45,0,0,0-9.43-7.45c-3.32-1.28-7.49-.4-11.28-.46C141,20.57,131,28.38,129,37.93c-.76,3.57-2.33,6.6-6,7.56a8.94,8.94,0,0,1-10.57-4.44c-2.26-4.22-3.83-8.79-5.9-13.12-2.93-6.13-7.61-8.59-14.15-7.73-7.6,1-13.46,4.49-16.18,12A37.39,37.39,0,0,0,74.73,40C74,46,72,51.8,73.86,57.92c2.14,7.1,3.9,14.61,8.9,20.13,4.17,4.6,8.79,8.61,10.7,14.78,1.76,5.68,1,13.36-6.64,15-3.12.67-6.45.77-9.32,2a114.73,114.73,0,0,0-12.42,6.73c-7.77,4.53-16.2,8.07-22.28,15.17-3.48,4.07-8,7.44-10.74,11.92-3.42,5.56-5.53,11.92-8.13,18a64.56,64.56,0,0,0-2.66,7.23c-1.38,4.74-3.29,9.48-3.72,14.34-.72,8,2.12,15.47,4.24,23.12,2.57,9.23,8.9,15,15.94,20.25s14.38,10.12,23,12.63c4.67,1.36,9.26,3.59,14,3.93,7.09.51,14.28-.13,21.41-.6a33.53,33.53,0,0,0,9.69-1.9,188.33,188.33,0,0,0,18.07-7.92c5-2.54,10.19-5.15,14.42-8.76a138.75,138.75,0,0,0,17.76-17.78,104.48,104.48,0,0,0,12.57-19.72c3.73-7.63,5.69-16,4.43-24.67a131.56,131.56,0,0,0-3.6-16.24c-1.89-6.83-6.28-12.31-10.76-17.59-3.36-4-7.67-7.85-12.75-8.2-5.39-.37-10-2.24-14.68-4.16-5.12-2.08-9.25-10.82-7.34-16.09C127.88,88.53,135.44,80.54,145.6,74.16Z"/><path class="cls-1" d="M88.38,120.89c8-3.27,15.83-2.38,23.82-1.31a40,40,0,0,1,22.2,10.28c8.59,7.94,15.83,17,14.84,30-.54,7,.09,14.22-1.74,20.81a45.29,45.29,0,0,1-12.17,20.93c-5.86,5.5-12.24,10.47-20.64,12.18-3.72.76-7,3.48-10.67,4.75-5.2,1.78-10.83,2.45-15.82,4.65-7.76,3.42-15.07.19-21.67-2-11.7-3.82-21.48-11.49-27-23a31,31,0,0,1-2.48-20c2-10,8-18,12.66-26.63,2.57-4.75,7.2-8.51,11.31-12.26,4.88-4.44,10.11-8.53,15.39-12.5,2.39-1.81,5.25-3,7.93-4.4a26.36,26.36,0,0,1,4.07-1.55m24.26,71.71a3.83,3.83,0,0,0,1-.27c11-6.69,15.81-16.87,16-29.41.11-7.62-3.41-13.3-10.08-17.06a30.14,30.14,0,0,1-4.77-3.32c-3.37-2.88-7.21-2.61-11.09-1.79-3.41.72-6.77,2.46-10.14,2.42-4.88-.06-9.11.61-13.26,3.44-11.83,8.08-21.41,17.5-23.31,32.71a14.81,14.81,0,0,0,2.11,10.4A30.05,30.05,0,0,0,74,201.61c3.37,1.3,7.35,2.64,10.7,2A71.88,71.88,0,0,0,112.64,192.6Z"/></g></g></svg>